<?xml version="1.0" encoding="utf-8"?>
<!DOCTYPE svg PUBLIC "-//W3C//DTD SVG 1.0//EN" "http://www.w3.org/TR/2001/REC-SVG-20010904/DTD/svg10.dtd">
<svg version="1.0" xmlns="http://www.w3.org/2000/svg" width="512px" height="512px" viewBox="0 0 512 512" preserveAspectRatio="xMidYMid meet">
 <g fill="#4db546">
  <path d="M248.7 476.3 c-4.4 -3.4 -6.4 -5.7 -23.8 -28.3 -27.9 -36.1 -54.2 -73.8 -75.1 -108 -38.9 -63.5 -52.8 -101.2 -52.9 -142.6 -0.1 -74.3 47.6 -140.8 114.1 -159.3 25.8 -7.2 65.9 -7 91.3 0.4 40.8 11.8 74.2 40.8 94.6 82 14.1 28.4 19.8 56.5 17.9 87.7 -2.6 42.7 -23.6 89.3 -74.9 166.3 -27.2 40.9 -69.2 96.7 -76.7 101.9 -5.1 3.5 -9.7 3.4 -14.5 -0.1z m30 -153.8 c40.8 -7.8 77.1 -35.3 95.9 -72.8 4.2 -8.3 9.6 -24.2 12 -35.2 2.4 -11 2.4 -33 0.1 -44.8 -9.4 -47.5 -43.1 -86.7 -88 -102.6 -15.3 -5.4 -27.4 -7.5 -43.2 -7.4 -20.8 0 -38.3 4.3 -57.3 13.9 -32.6 16.6 -57.4 45.2 -68 78.4 -5.3 16.5 -6.5 24.2 -6.5 40 0 16.2 1.3 24.1 6.8 40.7 16.6 50 60 84.8 114.5 91.7 6.3 0.8 25.3 -0.3 33.7 -1.9z"/>
  <path d="M166.2 265.8 c-0.7 -0.7 -1.2 -3.8 -1.2 -6.9 l0 -5.7 13.5 -17.6 c7.4 -9.7 13.5 -17.8 13.5 -18 0 -0.2 -0.9 -0.6 -2 -0.9 -1.7 -0.4 -2 -1.4 -2 -5.7 0 -5.1 0.2 -5.4 14 -23.5 7.7 -10.1 14 -18.6 14 -18.9 0 -0.2 -1 -0.6 -2.2 -0.8 -2 -0.3 -2.3 -1 -2.6 -4.9 -0.3 -4.4 0 -4.9 12.2 -21 8.6 -11.1 12.1 -16.5 11.1 -16.7 -1 -0.2 -1.5 -1.5 -1.5 -3.6 0 -2.6 2 -6 9.5 -15.9 9 -11.9 9.7 -12.7 13 -12.7 3.2 0 4 0.8 12.9 12.6 7.7 10.1 9.6 13.2 9.6 15.9 0 1.8 -0.4 3.5 -1 3.7 -0.5 0.2 4.7 7.7 11.6 16.7 12.2 16.1 12.5 16.6 12.2 21 -0.3 3.9 -0.6 4.6 -2.5 4.9 -1.3 0.2 -2.3 0.6 -2.3 0.8 0 0.3 6.3 8.8 14 18.9 13.8 18.1 14 18.4 14 23.5 0 4.3 -0.3 5.3 -2 5.7 -1.1 0.3 -2 0.7 -2 1 0 0.2 6.1 8.3 13.5 18 l13.5 17.6 0 5.6 c0 3.2 -0.5 6.2 -1.2 6.9 -1.7 1.7 -177.9 1.7 -179.6 0z"/>
 </g>
 <g fill="#ffffff">
  <path d="M242 327.4 c-54.5 -6.9 -97.8 -41.6 -114.5 -91.7 -5.7 -17 -7 -25.2 -7 -43.7 0 -18.1 1.3 -26 6.7 -43 10.6 -33.3 35.4 -61.8 68 -78.4 20.1 -10.2 37 -14.1 60.8 -14 18.4 0 29.7 1.9 45.7 7.5 38.6 13.7 70.1 45.7 83.1 84.6 5.1 15.2 6.6 24.9 6.6 43.3 0.1 18.5 -1.2 26.6 -6.9 43.7 -15.2 45.7 -55 80.5 -102.8 89.8 -8 1.6 -32.8 2.8 -39.7 1.9z m19 -52.9 l0 -10.5 40.3 0 c30 0 40.6 -0.3 41.5 -1.2 3 -3 1.2 -6.4 -14.3 -26.7 -8.5 -11.2 -15.5 -20.7 -15.5 -21.1 0 -0.5 1.7 -1 3.8 -1.2 6.9 -0.6 5.9 -2.7 -12.3 -26.5 l-16.5 -21.8 4.7 -0.5 c4 -0.4 4.8 -0.8 4.7 -2.5 0 -1.2 -6.4 -10.5 -14.2 -20.7 -7.8 -10.3 -14.2 -18.9 -14.2 -19.2 0 -0.3 1.4 -0.6 3 -0.6 1.7 0 3 -0.2 3 -0.4 0 -0.7 -19 -25.6 -19.5 -25.6 -0.3 0 -4.8 5.7 -10.1 12.8 l-9.6 12.7 3.6 0.3 c2 0.2 3.6 0.6 3.6 1 -0.1 0.4 -6.6 9.2 -14.6 19.6 -8 10.4 -14.3 19.6 -14.2 20.5 0.2 1.1 1.8 1.8 5.1 2.1 l4.7 0.5 -16.5 21.8 c-17.7 23.1 -19.1 25.9 -13 26.5 1.7 0.2 3.4 0.7 3.8 1.1 0.4 0.4 -6.2 9.9 -14.8 21.1 -15.6 20.4 -17.4 23.7 -14.3 26.8 0.9 0.9 11.5 1.2 41.5 1.2 l40.3 0 0 10.5 0 10.5 5 0 5 0 0 -10.5z"/>
 </g>
 <g fill="#73e56a">
  <path d="M248 276 l0 -12 8 0 8 0 0 12 0 12 -8 0 -8 0 0 -12z"/>
 </g>
</svg>